PathFileType	4	(X/Y/Z)	Walk9.trc
DataRate	CameraRate	NumFrames	NumMarkers	Units	OrigDataRate	OrigDataStartFrame	OrigNumFrames
200.000000	200.000000	5	59	mm	200.000000	331	528
Frame#	Times		LFHD		RBHD		C7		T10		CLAV		STRN		RBack		LASI		RASI		RPSI		RACR1		RUA1		RElbow		RFA1		RWRR		RWRU		RCAR		LACR1		LUA1		LFA1		LWRR		LCAR		RTH1		RTH3		RTH2		RTH4		RLFC		LTH1		LTH3		LTH2		LTH4		LLFC		LTB1		LTB3		LTB2		LTB4		LLMAL		LMMAL		LMT1		LMT5		LToe		LPSI		RFHD		LElbowM		LElbow		LBHD		RMMAL		LWRU		RTB4		RTB2		RTB1		RTB3		RToe		RCAL		RElbowM		RMT1		RLMAL		RMT5		LCAL
			X1	Y1	Z1	X2	Y2	Z2	X3	Y3	Z3	X4	Y4	Z4	X5	Y5	Z5	X6	Y6	Z6	X7	Y7	Z7	X8	Y8	Z8	X9	Y9	Z9	X10	Y10	Z10	X11	Y11	Z11	X12	Y12	Z12	X13	Y13	Z13	X14	Y14	Z14	X15	Y15	Z15	X16	Y16	Z16	X17	Y17	Z17	X18	Y18	Z18	X19	Y19	Z19	X20	Y20	Z20	X21	Y21	Z21	X22	Y22	Z22	X23	Y23	Z23	X24	Y24	Z24	X25	Y25	Z25	X26	Y26	Z26	X27	Y27	Z27	X28	Y28	Z28	X29	Y29	Z29	X30	Y30	Z30	X31	Y31	Z31	X32	Y32	Z32	X33	Y33	Z33	X34	Y34	Z34	X35	Y35	Z35	X36	Y36	Z36	X37	Y37	Z37	X38	Y38	Z38	X39	Y39	Z39	X40	Y40	Z40	X41	Y41	Z41	X42	Y42	Z42	X43	Y43	Z43	X44	Y44	Z44	X45	Y45	Z45	X46	Y46	Z46	X47	Y47	Z47	X48	Y48	Z48	X49	Y49	Z49	X50	Y50	Z50	X51	Y51	Z51	X52	Y52	Z52	X53	Y53	Z53	X54	Y54	Z54	X55	Y55	Z55	X56	Y56	Z56	X57	Y57	Z57	X58	Y58	Z58	X59	Y59	Z59

331	1.655	68.591	1571.3	-39.027	-89.369	1523.2	75.56	-87.453	1395.5	-1.0057	-107.66	1111.5	-4.5097	42.205	1324.9	-13.72	127.79	1101.6	-22.916	-122.98	1284.6	89.584	52.026	918.63	-154.22	95.909	926.49	111.58	-126.49	960.85	73.697	-5.4354	1324.8	162.74	-44.619	1113.3	215.6	-76.687	1009.6	232.38	-35.068	863.59	243.48	-27.088	756.2	206.66	-79.593	759.21	259.08	-40.528	711.4	256.17	-29.455	1342.1	-178.44	-38.604	1137.5	-237	54.18	921.46	-266.81	125.96	832.58	-227.58	139.51	792.01	-269.72	45.685	743.78	169.47	110.31	568.79	132.72	132.06	687.02	111.61	78.206	656.27	150.92	137.6	470.22	122.39	-64.124	709.56	-171.98	-76.507	525.33	-144.98	-0.037136	610.64	-131.18	-71.753	613.37	-159.17	-109.85	422.4	-132.91	-146.61	321.75	-59.672	-285.28	195.36	-67.166	-230.22	275.95	-135.82	-216	256.19	-67.783	-389.13	138.01	-117.53	-368.89	139.35	-36.421	-290.06	37.946	-63.418	-333.38	30.958	-137.36	-250.38	26.224	-92.862	-144.94	953.97	-39.246	77.561	1573	33.798	-60.821	996.22	-191.55	-43.928	1017.4	-259.33	-99.833	1531.3	-51.035	188.92	77.704	14.708	76.398	801.58	-269.53	190.52	261.65	45.498	180.07	263.53	115.25	184.97	354.44	46.333	197.12	169.74	44.003	366.77	43.365	80.975	129.68	21.949	43.009	-91.03	991.7	148.87	329.4	46.292	50.582	170.02	57.588	92.426	285.76	22.824	126.13	-445.41	143.69	-64.001
332	1.66	74.553	1571.4	-37.768	-83.25	1523	76.906	-81.012	1395.4	0.37966	-101.4	1111.5	-3.4243	48.645	1324.9	-12.453	134.47	1101.7	-21.742	-116.29	1284.4	91.01	58.784	918.26	-152.45	102.73	926.6	112.25	-120.09	961.08	74.563	1.2662	1324.7	164	-37.334	1113.1	216.73	-69.219	1009.3	233.46	-27.239	863.29	244.17	-18.992	756.01	207.15	-71.452	758.78	259.65	-32.251	711.09	256.6	-22.989	1342.1	-177.15	-32.587	1137.5	-235.57	59.289	920.97	-265.86	130.76	831.65	-227.03	143.89	791.1	-269.32	52.732	744.35	170.13	117.51	569.53	132.94	138.88	687.84	111.82	85.283	656.93	151.27	144.65	470.55	122.51	-55.952	708.97	-170.94	-66.867	524.59	-144.53	8.7411	610.52	-130.06	-62.833	612.68	-158.45	-99.743	422	-132.72	-137.9	321.78	-59.981	-278.73	197.87	-68.268	-222.28	277.9	-136.46	-208.45	257.53	-68.488	-383.62	142.61	-118.89	-363.42	143.46	-37.822	-288.92	38.5	-63.689	-331.79	32.817	-137.48	-250.3	26.088	-92.83	-138.65	953.59	-38.514	83.548	1573.2	35.048	-54.885	996.22	-189.96	-38.354	1017.3	-257.91	-93.786	1531	-49.675	189.72	77.21	14.27	80.854	801	-268.84	194.28	261.28	45.084	184.62	263.26	115.02	190.06	354.14	46.027	199.53	169.29	43.506	368.15	40.68	79.762	129.83	22.372	43.099	-83.711	991.47	149.94	330.32	44.192	49.527	171.04	57.64	92.094	286.22	22.228	126.41	-439.38	150.33	-65.618
333	1.665	80.521	1571.6	-36.516	-77.124	1522.8	78.24	-74.59	1395.4	1.7471	-95.203	1111.5	-2.3651	55.054	1325	-11.21	141.1	1101.8	-20.571	-109.63	1284.3	92.44	65.577	917.91	-150.64	109.49	926.75	112.92	-113.77	961.31	75.388	7.968	1324.6	165.24	-30.007	1112.9	217.86	-61.711	1009	234.54	-19.337	863.05	244.87	-10.799	755.9	207.65	-63.212	758.4	260.23	-23.869	710.84	257.02	-16.541	1342.1	-175.88	-26.591	1137.5	-234.16	64.336	920.52	-264.89	135.44	830.71	-226.46	148.13	790.18	-268.91	59.535	744.83	170.87	124.53	570.22	133.22	145.53	688.6	112.23	92.154	657.51	151.72	151.57	470.84	122.65	-47.704	708.42	-169.91	-57.01	523.89	-144.11	17.661	610.5	-128.96	-53.768	612.02	-157.75	-89.337	421.63	-132.55	-128.88	321.87	-60.29	-271.8	200.46	-69.344	-213.99	279.91	-137.09	-200.56	258.95	-69.173	-377.7	147.32	-120.2	-357.56	147.67	-39.181	-287.52	39.209	-63.999	-329.91	34.911	-137.6	-250.09	25.965	-92.827	-132.41	953.23	-37.818	89.542	1573.4	36.29	-48.989	996.29	-188.37	-32.808	1017.4	-256.49	-87.735	1530.8	-48.326	190.41	76.781	13.842	85.191	800.43	-268.15	197.93	260.93	44.687	188.99	262.99	114.79	195.02	353.85	45.741	201.8	168.88	43.022	369.39	38.368	78.702	129.96	22.761	43.166	-76.364	991.3	151.03	331.11	42.433	48.581	171.95	57.734	91.759	286.6	21.795	126.69	-432.89	157.08	-67.201
334	1.67	86.494	1571.8	-35.276	-70.995	1522.7	79.561	-68.197	1395.4	3.0953	-89.064	1111.6	-1.3312	61.429	1325	-9.9935	147.68	1102	-19.406	-102.98	1284.3	93.87	72.398	917.6	-148.81	116.2	926.93	113.59	-107.51	961.54	76.174	14.662	1324.5	166.46	-22.646	1112.7	218.98	-54.168	1008.7	235.62	-11.362	862.86	245.56	-2.5112	755.85	208.15	-54.874	758.08	260.81	-15.385	710.64	257.43	-10.121	1342.2	-174.63	-20.616	1137.5	-232.78	69.324	920.09	-263.91	140	829.76	-225.87	152.25	789.25	-268.47	66.092	745.21	171.7	131.34	570.82	133.56	152.02	689.29	112.84	98.809	658	152.25	158.33	471.07	122.81	-39.398	707.91	-168.89	-46.969	523.24	-143.71	26.698	610.57	-127.88	-44.582	611.42	-157.08	-78.671	421.3	-132.41	-119.55	322.02	-60.592	-264.5	203.13	-70.376	-205.36	281.98	-137.69	-192.34	260.43	-69.826	-371.39	152.09	-121.45	-351.3	151.96	-40.479	-285.83	40.084	-64.349	-327.71	37.246	-137.72	-249.7	25.864	-92.858	-126.22	952.88	-37.155	95.543	1573.6	37.52	-43.133	996.43	-186.79	-27.291	1017.4	-255.08	-81.682	1530.6	-46.991	191	76.411	13.434	89.412	799.89	-267.45	201.45	260.59	44.323	193.17	262.71	114.59	199.84	353.54	45.491	203.96	168.49	42.565	370.52	36.413	77.796	130.07	23.115	43.213	-68.992	991.17	152.12	331.8	40.997	47.749	172.75	57.858	91.431	286.89	21.499	126.96	-425.96	163.88	-68.727
335	1.675	92.471	1572	-34.049	-64.865	1522.6	80.867	-61.841	1395.5	4.4232	-82.976	1111.7	-0.32233	67.762	1325.2	-8.805	154.18	1102.2	-18.248	-96.368	1284.3	95.297	79.239	917.34	-146.97	122.84	927.15	114.28	-101.31	961.76	76.922	21.342	1324.5	167.65	-15.257	1112.6	220.08	-46.594	1008.5	236.71	-3.321	862.73	246.25	5.8712	755.86	208.66	-46.442	757.8	261.4	-6.8008	710.5	257.85	-3.7355	1342.3	-173.39	-14.659	1137.6	-231.41	74.255	919.69	-262.92	144.45	828.79	-225.26	156.25	788.3	-268.01	72.407	745.47	172.6	137.93	571.33	133.95	158.35	689.88	113.64	105.24	658.37	152.86	164.89	471.25	122.99	-31.055	707.46	-167.9	-36.779	522.67	-143.34	35.828	610.73	-126.84	-35.303	610.88	-156.43	-67.784	421.03	-132.29	-109.96	322.25	-60.882	-256.87	205.86	-71.344	-196.44	284.1	-138.24	-183.81	261.98	-70.436	-364.7	156.9	-122.61	-344.68	156.3	-41.691	-283.8	41.133	-64.733	-325.13	39.82	-137.83	-249.08	25.8	-92.924	-120.07	952.55	-36.52	101.55	1573.8	38.736	-37.316	996.63	-185.22	-21.802	1017.6	-253.68	-75.63	1530.5	-45.671	191.51	76.093	13.052	93.521	799.38	-266.75	204.83	260.25	44.005	197.12	262.42	114.41	204.52	353.23	45.291	206	168.13	42.148	371.52	34.791	77.043	130.17	23.431	43.239	-61.6	991.09	153.22	332.38	39.855	47.029	173.44	58.003	91.117	287.12	21.313	127.21	-418.62	170.69	-70.174
